<mxfile host="65bd71144e">
    <diagram name="Page-1" id="gxSRHBJLdHKPJnFXmSLP">
        <mxGraphModel dx="1130" dy="571" grid="1" gridSize="10" guides="1" tooltips="1" connect="1" arrows="1" fold="1" page="1" pageScale="1" pageWidth="827" pageHeight="1169" math="0" shadow="0">
            <root>
                <mxCell id="0"/>
                <mxCell id="1" parent="0"/>
                <mxCell id="liNbVXP8YebT4ni5DIOp-41" style="edgeStyle=orthogonalEdgeStyle;rounded=0;orthogonalLoop=1;jettySize=auto;html=1;exitX=1;exitY=0.5;exitDx=0;exitDy=0;entryX=0;entryY=0.5;entryDx=0;entryDy=0;labelBackgroundColor=none;strokeColor=#A8201A;fontColor=default;" parent="1" source="liNbVXP8YebT4ni5DIOp-1" target="liNbVXP8YebT4ni5DIOp-4" edge="1">
                    <mxGeometry relative="1" as="geometry"/>
                </mxCell>
                <mxCell id="liNbVXP8YebT4ni5DIOp-43" style="edgeStyle=orthogonalEdgeStyle;rounded=0;orthogonalLoop=1;jettySize=auto;html=1;exitX=1;exitY=0.5;exitDx=0;exitDy=0;labelBackgroundColor=none;strokeColor=#A8201A;fontColor=default;" parent="1" source="liNbVXP8YebT4ni5DIOp-1" target="liNbVXP8YebT4ni5DIOp-6" edge="1">
                    <mxGeometry relative="1" as="geometry"/>
                </mxCell>
                <mxCell id="liNbVXP8YebT4ni5DIOp-1" value="frontend" style="rounded=1;whiteSpace=wrap;html=1;labelBackgroundColor=none;fillColor=#FAE5C7;strokeColor=#0F8B8D;fontColor=#143642;" parent="1" vertex="1">
                    <mxGeometry x="120" y="415" width="120" height="60" as="geometry"/>
                </mxCell>
                <mxCell id="liNbVXP8YebT4ni5DIOp-34" value="" style="group;labelBackgroundColor=none;fontColor=#143642;" parent="1" vertex="1" connectable="0">
                    <mxGeometry x="310" y="500" width="120" height="215.79999999999995" as="geometry"/>
                </mxCell>
                <mxCell id="liNbVXP8YebT4ni5DIOp-6" value="home-service" style="rounded=1;whiteSpace=wrap;html=1;labelBackgroundColor=none;fillColor=#FAE5C7;strokeColor=#0F8B8D;fontColor=#143642;" parent="liNbVXP8YebT4ni5DIOp-34" vertex="1">
                    <mxGeometry width="120" height="60" as="geometry"/>
                </mxCell>
                <mxCell id="liNbVXP8YebT4ni5DIOp-29" value="" style="endArrow=none;html=1;rounded=0;labelBackgroundColor=none;strokeColor=#A8201A;fontColor=default;" parent="liNbVXP8YebT4ni5DIOp-34" edge="1">
                    <mxGeometry width="50" height="50" relative="1" as="geometry">
                        <mxPoint x="49.5" y="110" as="sourcePoint"/>
                        <mxPoint x="49.5" y="60" as="targetPoint"/>
                    </mxGeometry>
                </mxCell>
                <mxCell id="liNbVXP8YebT4ni5DIOp-30" value="" style="endArrow=none;html=1;rounded=0;labelBackgroundColor=none;strokeColor=#A8201A;fontColor=default;" parent="liNbVXP8YebT4ni5DIOp-34" edge="1">
                    <mxGeometry width="50" height="50" relative="1" as="geometry">
                        <mxPoint x="59" y="110" as="sourcePoint"/>
                        <mxPoint x="59" y="60" as="targetPoint"/>
                    </mxGeometry>
                </mxCell>
                <mxCell id="liNbVXP8YebT4ni5DIOp-28" value="home" style="shape=cylinder3;whiteSpace=wrap;html=1;boundedLbl=1;backgroundOutline=1;size=15;labelBackgroundColor=none;fillColor=#FAE5C7;strokeColor=#0F8B8D;fontColor=#143642;" parent="liNbVXP8YebT4ni5DIOp-34" vertex="1">
                    <mxGeometry x="30" y="100" width="60" height="80" as="geometry"/>
                </mxCell>
                <mxCell id="liNbVXP8YebT4ni5DIOp-32" value="" style="shape=image;verticalLabelPosition=bottom;labelBackgroundColor=none;verticalAlign=top;aspect=fixed;imageAspect=0;image=https://logos-download.com/wp-content/uploads/2018/09/SQLite_Logo.png;fillColor=#FAE5C7;strokeColor=#0F8B8D;fontColor=#143642;" parent="liNbVXP8YebT4ni5DIOp-34" vertex="1">
                    <mxGeometry x="30" y="190" width="60" height="25.8" as="geometry"/>
                </mxCell>
                <mxCell id="liNbVXP8YebT4ni5DIOp-35" value="" style="group;labelBackgroundColor=none;fontColor=#143642;" parent="1" vertex="1" connectable="0">
                    <mxGeometry x="310" y="160" width="120" height="220" as="geometry"/>
                </mxCell>
                <mxCell id="liNbVXP8YebT4ni5DIOp-2" value="user-service" style="rounded=1;whiteSpace=wrap;html=1;labelBackgroundColor=none;fillColor=#FAE5C7;strokeColor=#0F8B8D;fontColor=#143642;" parent="liNbVXP8YebT4ni5DIOp-35" vertex="1">
                    <mxGeometry y="170" width="120" height="50" as="geometry"/>
                </mxCell>
                <mxCell id="liNbVXP8YebT4ni5DIOp-3" value="user" style="shape=cylinder3;whiteSpace=wrap;html=1;boundedLbl=1;backgroundOutline=1;size=15;labelBackgroundColor=none;fillColor=#FAE5C7;strokeColor=#0F8B8D;fontColor=#143642;" parent="liNbVXP8YebT4ni5DIOp-35" vertex="1">
                    <mxGeometry x="20" y="40" width="60" height="80" as="geometry"/>
                </mxCell>
                <mxCell id="liNbVXP8YebT4ni5DIOp-10" value="" style="endArrow=none;html=1;rounded=0;labelBackgroundColor=none;strokeColor=#A8201A;fontColor=default;" parent="liNbVXP8YebT4ni5DIOp-35" edge="1">
                    <mxGeometry width="50" height="50" relative="1" as="geometry">
                        <mxPoint x="40" y="170" as="sourcePoint"/>
                        <mxPoint x="40" y="120" as="targetPoint"/>
                    </mxGeometry>
                </mxCell>
                <mxCell id="liNbVXP8YebT4ni5DIOp-11" value="" style="endArrow=none;html=1;rounded=0;labelBackgroundColor=none;strokeColor=#A8201A;fontColor=default;" parent="liNbVXP8YebT4ni5DIOp-35" edge="1">
                    <mxGeometry width="50" height="50" relative="1" as="geometry">
                        <mxPoint x="49.5" y="170" as="sourcePoint"/>
                        <mxPoint x="49.5" y="120" as="targetPoint"/>
                    </mxGeometry>
                </mxCell>
                <mxCell id="liNbVXP8YebT4ni5DIOp-14" value="" style="shape=image;verticalLabelPosition=bottom;labelBackgroundColor=none;verticalAlign=top;aspect=fixed;imageAspect=0;image=https://logos-download.com/wp-content/uploads/2018/09/SQLite_Logo.png;fillColor=#FAE5C7;strokeColor=#0F8B8D;fontColor=#143642;" parent="liNbVXP8YebT4ni5DIOp-35" vertex="1">
                    <mxGeometry x="10" width="60" height="25.8" as="geometry"/>
                </mxCell>
                <mxCell id="liNbVXP8YebT4ni5DIOp-36" value="" style="group;labelBackgroundColor=none;fontColor=#143642;" parent="1" vertex="1" connectable="0">
                    <mxGeometry x="504" y="95.00000000000006" width="120" height="230.66999999999996" as="geometry"/>
                </mxCell>
                <mxCell id="liNbVXP8YebT4ni5DIOp-5" value="object-service" style="rounded=1;whiteSpace=wrap;html=1;labelBackgroundColor=none;fillColor=#FAE5C7;strokeColor=#0F8B8D;fontColor=#143642;" parent="liNbVXP8YebT4ni5DIOp-36" vertex="1">
                    <mxGeometry y="170.66999999999996" width="120" height="60" as="geometry"/>
                </mxCell>
                <mxCell id="liNbVXP8YebT4ni5DIOp-19" value="" style="shape=image;verticalLabelPosition=bottom;labelBackgroundColor=none;verticalAlign=top;aspect=fixed;imageAspect=0;editableCssRules=.*;image=data:image/svg+xml,PHN2ZyB4bWxucz0iaHR0cDovL3d3dy53My5vcmcvMjAwMC9zdmciIGZpbGw9Im5vbmUiIHZpZXdCb3g9IjAgMCA2MDAgMzA0IiBoZWlnaHQ9IjMwNCIgd2lkdGg9IjYwMCI+JiN4YTs8cGF0aCBmaWxsPSJ1cmwoI3BhaW50MF9saW5lYXJfMTM1Nl84MjE0OCkiIGQ9Ik0yOTMuMzcxIDEyMC41MkwyOTUuMDAxIDE0My4zMzNDMjk1LjAwMSAxNDMuMzMzIDI5NS44MzQgMTQ2LjY2NyAzMDAuMDAxIDE0Ni42NjdDMzA0LjE2NyAxNDYuNjY3IDMwNS4wMDEgMTQzLjMzMyAzMDUuMDAxIDE0My4zMzNMMzA2LjYzIDEyMC41MkMzMDYuNTcgMTIwLjU0NSAzMDYuNTA5IDEyMC41NyAzMDYuNDQ3IDEyMC41OTVDMzA0Ljk2OSAxMjEuMTg2IDMwMi44NzcgMTIxLjY2NyAzMDAuMDAxIDEyMS42NjdDMjk3LjEyNSAxMjEuNjY3IDI5NS4wMzMgMTIxLjE4NiAyOTMuNTU1IDEyMC41OTVDMjkzLjQ5MiAxMjAuNTcgMjkzLjQzMSAxMjAuNTQ1IDI5My4zNzEgMTIwLjUyWiIvPiYjeGE7PHBhdGggZmlsbD0idXJsKCNwYWludDFfbGluZWFyXzEzNTZfODIxNDgpIiBkPSJNMjkwLjA3MSA3OS4xNDExTDI5My4zMzQgMTE2LjY2N0MyOTMuMzM0IDExNi42NjcgMjk1LjAwMSAxMTguMzMzIDMwMC4wMDEgMTE4LjMzM0MzMDUuMDAxIDExOC4zMzMgMzA2LjY2OCAxMTYuNjY3IDMwNi42NjggMTE2LjY2N0wzMDkuOTMxIDc5LjE0MDlDMzA3Ljg4NCA4MC4zMzE5IDMwNC41NjIgODEuNjY2NyAzMDAuMDAxIDgxLjY2NjdDMjk1LjQzOCA4MS42NjY3IDI5Mi4xMTcgODAuMzMxNSAyOTAuMDcxIDc5LjE0MTFaIi8+JiN4YTs8cGF0aCBmaWxsPSJ1cmwoI3BhaW50Ml9saW5lYXJfMTM1Nl84MjE0OCkiIGQ9Ik0yODguNzI1IDQyLjI3NDFDMjg4LjE4OSA0Mi42NTE1IDI4Ny43NjQgNDMuMTg3IDI4Ny41MjMgNDMuODI5NkwyODQuMTYzIDUyLjc5MDFDMjgzLjYyNiA1NC4yMTk5IDI4My41OTcgNTUuNzkwNCAyODQuMDggNTcuMjM5MUwyODkuNTAzIDczLjUwN0MyODkuODMgNzQuNDg4OCAyOTAuMzc4IDc1LjM5MTMgMjkxLjI0NyA3NS45NTM0QzI5Mi43NyA3Ni45Mzg1IDI5NS42ODggNzguMzMzMyAzMDAuMDAxIDc4LjMzMzNDMzA0LjMxMyA3OC4zMzMzIDMwNy4yMzEgNzYuOTM4NSAzMDguNzU0IDc1Ljk1MzRDMzA5LjYyMyA3NS4zOTEzIDMxMC4xNzEgNzQuNDg4OCAzMTAuNDk4IDczLjUwN0wzMTUuOTIxIDU3LjIzOTFDMzE2LjQwNCA1NS43OTA0IDMxNi4zNzUgNTQuMjE5OSAzMTUuODM4IDUyLjc5MDFMMzEyLjQ3OCA0My44Mjk2QzMxMi4yMzcgNDMuMTg3IDMxMS44MTIgNDIuNjUxNSAzMTEuMjc2IDQyLjI3NDFDMzA4LjMwOCA0NS4wMDE1IDMwNC4zNDkgNDYuNjY2NyAzMDAuMDAxIDQ2LjY2NjdDMjk1LjY1MiA0Ni42NjY3IDI5MS42OTMgNDUuMDAxNSAyODguNzI1IDQyLjI3NDFaIi8+JiN4YTs8cGF0aCBmaWxsPSJ1cmwoI3BhaW50M19saW5lYXJfMTM1Nl84MjE0OCkiIGQ9Ik0yODYuNjY3IDMwQzI4Ni42NjcgMjguMDA1NSAyODUuNDg0IDI2LjA0MDMgMjgzLjcyNCAyNS4xMDAxQzI3OS41MjUgMjIuODU1NCAyNzYuNjY3IDE4LjQyOCAyNzYuNjY3IDEzLjMzMzNDMjc2LjY2NyA1Ljk2OTU0IDI4Mi42MzcgMCAyOTAuMDAxIDBDMjkxLjI4NyAwIDI5Mi41MzEgMC4xODIxMDMgMjkzLjcwNyAwLjUyMTkzMkMyOTcuNTYgMS42MzQ2OCAzMDIuNDQxIDEuNjM0NjcgMzA2LjI5NCAwLjUyMTkzQzMwNy40NzEgMC4xODIxMDIgMzA4LjcxNSAwIDMxMC4wMDEgMEMzMTcuMzY1IDAgMzIzLjMzNCA1Ljk2OTU0IDMyMy4zMzQgMTMuMzMzM0MzMjMuMzM0IDE4LjQyOCAzMjAuNDc3IDIyLjg1NTQgMzE2LjI3NyAyNS4xMDAxQzMxNC41MTggMjYuMDQwMyAzMTMuMzM0IDI4LjAwNTUgMzEzLjMzNCAzMEMzMTMuMzM0IDM3LjM2MzggMzA3LjM2NSA0My4zMzMzIDMwMC4wMDEgNDMuMzMzM0MyOTIuNjM3IDQzLjMzMzMgMjg2LjY2NyAzNy4zNjM4IDI4Ni42NjcgMzBaIi8+JiN4YTs8cGF0aCBmaWxsPSJ1cmwoI3BhaW50NF9saW5lYXJfMTM1Nl84MjE0OCkiIGQ9Ik0yMTUuMDAxIDUwSDI4MS4zMzRDMjc4LjMzNCA1NSAyODAuNTA5IDU4LjE5MyAyODEuNjY3IDYxLjY2NjdMMjE5LjM5MSA3OS41MDE0QzIxNS40MTQgODAuNjIxNiAyMTEuMTU4IDc5LjE4MTEgMjA4LjY3OSA3NS44NzZMMjA0Ljc2IDcwLjY1MDRDMjAyLjQ4OCA2Ny42MjAyIDIwMi4xMjIgNjMuNTY2MSAyMDMuODE2IDYwLjE3ODJMMjA2LjE0MSA1NS41Mjc1QzIwNy44MjIgNTIuMTY3MSAyMTEuMjQ0IDUwLjAzMiAyMTUuMDAxIDUwWiIvPiYjeGE7PHBhdGggZmlsbD0idXJsKCNwYWludDVfbGluZWFyXzEzNTZfODIxNDgpIiBkPSJNMjgyLjUwMSA0Ni42NjY3TDIwNi42NjcgNDQuODg3NkMyMDIuNDM0IDQ0LjcxMTEgMTk4LjczIDQyLjI3MDIgMTk3LjQ4NCAzOC4yMjA5TDE5My43NzcgMjYuMjQ1OUMxOTMuNDgxIDI1LjI4NSAxOTMuMzM3IDI0LjMwNDIgMTkzLjMzNCAyMy4zMzMzQzE5My4zMjYgMjAuMjc0NSAxOTQuNzI0IDE3LjMxMzYgMTk3LjIzNCAxNS4zODE0TDIwNC44ODQgOS40OTE5NkMyMDcuNzUxIDcuMjg0MTkgMjExLjU4OCA2Ljc5ODA3IDIxNC45MTYgOC4yMjA4OEMyMjMuNDgxIDExLjc0OTcgMjc0Ljg3NSAzMy45NTY2IDI4My43MDkgMzcuNzc0OEMyODQuNDY3IDM4LjEwMjQgMjg0Ljg0NCAzOC45MjM3IDI4NC42NDEgMzkuNzI0MkMyODQuNDk4IDQwLjI5MzggMjg0LjMyOCA0MC45Nzk5IDI4NC4xNjcgNDEuNjY2N0MyODMuNjk4IDQzLjY3MDggMjgyLjUwMSA0Ni42NjY3IDI4Mi41MDEgNDYuNjY2N1oiLz4mI3hhOzxwYXRoIGZpbGw9InVybCgjcGFpbnQ2X2xpbmVhcl8xMzU2XzgyMTQ4KSIgZD0iTTM4NS4wMDEgNTBIMzE4LjY2N0MzMjEuNjY3IDU1IDMxOS40OTIgNTguMTkzIDMxOC4zMzQgNjEuNjY2N0wzODAuNjEgNzkuNTAxNEMzODQuNTg3IDgwLjYyMTYgMzg4Ljg0MyA3OS4xODExIDM5MS4zMjIgNzUuODc2TDM5NS4yNDEgNzAuNjUwNEMzOTcuNTE0IDY3LjYyMDIgMzk3Ljg3OSA2My41NjYxIDM5Ni4xODUgNjAuMTc4M0wzOTMuODYgNTUuNTI3NUMzOTIuMTggNTIuMTY3MSAzODguNzU4IDUwLjAzMiAzODUuMDAxIDUwWiIvPiYjeGE7PHBhdGggZmlsbD0idXJsKCNwYWludDdfbGluZWFyXzEzNTZfODIxNDgpIiBkPSJNMzE3LjUwMSA0Ni42NjY3TDM5My4zMzQgNDQuODg3NkMzOTcuNTY3IDQ0LjcxMTIgNDAxLjI3MSA0Mi4yNzAyIDQwMi41MTcgMzguMjIwOUw0MDYuMjI1IDI2LjI0NTlDNDA2LjUyIDI1LjI4NSA0MDYuNjY1IDI0LjMwNDMgNDA2LjY2NyAyMy4zMzMzQzQwNi42NzYgMjAuMjc0NSA0MDUuMjc3IDE3LjMxMzYgNDAyLjc2NyAxNS4zODE0TDM5NS4xMTggOS40OTE5OEMzOTIuMjUgNy4yODQyMSAzODguNDEzIDYuNzk4MDkgMzg1LjA4NiA4LjIyMDkxQzM3Ni41MiAxMS43NDk3IDMyNS4xMjYgMzMuOTU2NiAzMTYuMjkzIDM3Ljc3NDhDMzE1LjUzNSAzOC4xMDI0IDMxNS4xNTggMzguOTIzNyAzMTUuMzYgMzkuNzI0MkMzMTUuNTA0IDQwLjI5MzggMzE1LjY3MyA0MC45Nzk5IDMxNS44MzQgNDEuNjY2N0MzMTYuMzAzIDQzLjY3MDggMzE3LjUwMSA0Ni42NjY3IDMxNy41MDEgNDYuNjY2N1oiLz4mI3hhOzxwYXRoIGZpbGw9InVybCgjcGFpbnQ4X2xpbmVhcl8xMzU2XzgyMTQ4KSIgZD0iTTQ2NS41ODIgMTc2LjQ5M0M0NjQuNjA0IDE3OS4zMjkgNDY0LjExNSAxODIuMzYgNDY0LjExNSAxODUuNTg3VjE5Ni43MzNINDUyLjgyMlYyMDkuMzQ3SDQ2NC4xMTVWMjczLjg4SDQ3OS4zNjlWMjA5LjM0N0g0OTMuNzQyVjE5Ni43MzNINDc5LjM2OVYxODYuMTczQzQ3OS4zNjkgMTgzLjkyNCA0NzkuOTA3IDE4Mi4yMTMgNDgwLjk4MiAxODEuMDRDNDgyLjE1NSAxNzkuODY3IDQ4My45MTUgMTc5LjI4IDQ4Ni4yNjIgMTc5LjI4SDQ5My43NDJMNDk3LjA3NiAxNjguNTczQzQ5Ni4wOTggMTY4LjE4MiA0OTQuOTczIDE2Ny44NCA0OTMuNzAyIDE2Ny41NDdDNDkyLjQzMSAxNjcuMjUzIDQ5MS4wNjIgMTY3LjA1OCA0ODkuNTk1IDE2Ni45NkM0ODguMjI3IDE2Ni43NjQgNDg2Ljg1OCAxNjYuNjY3IDQ4NS40ODkgMTY2LjY2N0M0ODAuNjk4IDE2Ni42NjcgNDczLjY0OSAxNjcuNTk2IDQ3MS4wMDkgMTY5LjQ1M0M0NjguNDY3IDE3MS4zMTEgNDY2LjY1OCAxNzMuNjU4IDQ2NS41ODIgMTc2LjQ5M1oiLz4mI3hhOzxwYXRoIGZpbGw9InVybCgjcGFpbnQ5X2xpbmVhcl8xMzU2XzgyMTQ4KSIgZD0iTTY1LjQxMzMgMjY4LjZDNTguMDggMjcyLjEyIDQ5LjIzMTEgMjczLjg4IDM4Ljg2NjcgMjczLjg4SDBWMTczLjI2N0gzOC44NjY3QzQ5LjIzMTEgMTczLjI2NyA1OC4wOCAxNzUuMDc2IDY1LjQxMzMgMTc4LjY5M0M3Mi43NDY3IDE4Mi4yMTMgNzguMzY4OSAxODcuNjg5IDgyLjI4IDE5NS4xMkM4Ni4yODg5IDIwMi40NTMgODguMjkzMyAyMTEuOTM4IDg4LjI5MzMgMjIzLjU3M0M4OC4yOTMzIDIzNS4xMTEgODYuMjg4OSAyNDQuNTk2IDgyLjI4IDI1Mi4wMjdDNzguMzY4OSAyNTkuNDU4IDcyLjc0NjcgMjY0Ljk4MiA2NS40MTMzIDI2OC42Wk01Mi41MDY3IDE4OS40QzQ4LjQ5NzggMTg4LjAzMSA0My45MDIyIDE4Ny4zNDcgMzguNzIgMTg3LjM0N0gxNi40MjY3VjI1OS44SDM4LjcyQzQzLjkwMjIgMjU5LjggNDguNDk3OCAyNTkuMTE2IDUyLjUwNjcgMjU3Ljc0N0M1Ni42MTMzIDI1Ni4zNzggNjAuMDM1NiAyNTQuMjc2IDYyLjc3MzMgMjUxLjQ0QzY1LjYwODkgMjQ4LjYwNCA2Ny43MTExIDI0NS4wMzYgNjkuMDggMjQwLjczM0M3MC41NDY3IDIzNi4zMzMgNzEuMjggMjMxLjE1MSA3MS4yOCAyMjUuMTg3VjIyMi4xMDdDNzEuMjggMjE2LjA0NCA3MC41NDY3IDIxMC44NjIgNjkuMDggMjA2LjU2QzY3LjcxMTEgMjAyLjE2IDY1LjYwODkgMTk4LjU0MiA2Mi43NzMzIDE5NS43MDdDNjAuMDM1NiAxOTIuODcxIDU2LjYxMzMgMTkwLjc2OSA1Mi41MDY3IDE4OS40WiIgY2xpcC1ydWxlPSJldmVub2RkIiBmaWxsLXJ1bGU9ImV2ZW5vZGQiLz4mI3hhOzxwYXRoIGZpbGw9InVybCgjcGFpbnQxMF9saW5lYXJfMTM1Nl84MjE0OCkiIGQ9Ik0xMTIuOTQ3IDIyMy4yOEMxMTIuMjYyIDIyNi4wMTggMTExLjkyIDIyOS4wOTggMTExLjkyIDIzMi41MlYyNzMuODhIOTYuNjY2NVYxOTYuNzMzSDEwOS4yOEwxMTAuNiAyMDkuMkgxMTEuNDhDMTEyLjM2IDIwNi43NTYgMTEzLjQ4NCAyMDQuNDU4IDExNC44NTMgMjAyLjMwN0MxMTYuMzIgMjAwLjE1NiAxMTguMTc4IDE5OC4zOTYgMTIwLjQyNyAxOTcuMDI3QzEyMi43NzMgMTk1LjY1OCAxMjUuNjA5IDE5NC45NzMgMTI4LjkzMyAxOTQuOTczQzEzMC40OTggMTk0Ljk3MyAxMzEuODY3IDE5NS4xMiAxMzMuMDQgMTk1LjQxM0MxMzQuMzExIDE5NS43MDcgMTM1LjI4OSAxOTUuOTUxIDEzNS45NzMgMTk2LjE0N1YyMTAuNTJIMTMwLjg0QzEyNy43MTEgMjEwLjUyIDEyNC45MjQgMjExLjAwOSAxMjIuNDggMjExLjk4N0MxMjAuMTMzIDIxMi45NjQgMTE4LjEyOSAyMTQuNDMxIDExNi40NjcgMjE2LjM4N0MxMTQuOTAyIDIxOC4yNDQgMTEzLjcyOSAyMjAuNTQyIDExMi45NDcgMjIzLjI4WiIvPiYjeGE7PHBhdGggZmlsbD0idXJsKCNwYWludDExX2xpbmVhcl8xMzU2XzgyMTQ4KSIgZD0iTTE1Ny4yNTYgMjc0Ljc2QzE2MC4wOTIgMjc1LjM0NyAxNjIuNzMyIDI3NS42NCAxNjUuMTc2IDI3NS42NEMxNjkuMTg1IDI3NS42NCAxNzIuODAzIDI3NS4xNTEgMTc2LjAzIDI3NC4xNzNDMTc5LjI1NiAyNzMuMjkzIDE4Mi4wOTIgMjcyLjAyMiAxODQuNTM2IDI3MC4zNkMxODcuMDc4IDI2OC42IDE4OS4yMyAyNjYuNTk2IDE5MC45OSAyNjQuMzQ3SDE5MS44N1YyNzUuNjRMMjA1LjggMjc1LjYyN0wyMDUuODAzIDIxOC43MzNDMjA1LjgwMyAyMTMuNzQ3IDIwNC42NzggMjA5LjQ5MyAyMDIuNDMgMjA1Ljk3M0MyMDAuMTgxIDIwMi40NTMgMTk2LjgwNyAxOTkuNzY0IDE5Mi4zMSAxOTcuOTA3QzE4Ny45MSAxOTUuOTUxIDE4Mi4zODUgMTk0Ljk3MyAxNzUuNzM2IDE5NC45NzNDMTY5LjU3NiAxOTQuOTczIDE2NC4xNSAxOTUuODA0IDE1OS40NTYgMTk3LjQ2N0MxNTQuNzYzIDE5OS4xMjkgMTUxLjA5NiAyMDEuNTczIDE0OC40NTYgMjA0LjhDMTQ1LjkxNCAyMDcuOTI5IDE0NC42NDMgMjExLjc5MSAxNDQuNjQzIDIxNi4zODdWMjE4LjE0N0MxNDQuNjQzIDIxOC42MzYgMTQ0LjY5MiAyMTkuMTI0IDE0NC43OSAyMTkuNjEzSDE1OS40NTZWMjE3LjQxM0MxNTkuNDU2IDIxNS42NTMgMTU5Ljg5NiAyMTQuMDQgMTYwLjc3NiAyMTIuNTczQzE2MS43NTQgMjExLjAwOSAxNjMuMzY3IDIwOS43MzggMTY1LjYxNiAyMDguNzZDMTY3Ljk2MyAyMDcuNjg0IDE3MS4xOSAyMDcuMTQ3IDE3NS4yOTYgMjA3LjE0N0MxNzkuNDAzIDIwNy4xNDcgMTgyLjUzMiAyMDcuNjg0IDE4NC42ODMgMjA4Ljc2QzE4Ni45MzIgMjA5LjgzNiAxODguNDQ3IDIxMS4zNTEgMTg5LjIzIDIxMy4zMDdDMTkwLjExIDIxNS4yNjIgMTkwLjU1IDIxNy41MTEgMTkwLjU1IDIyMC4wNTNWMjI3LjY4QzE4My4zMTQgMjI3LjY4IDE3Ni42MTYgMjI4LjA3MSAxNzAuNDU2IDIyOC44NTNDMTY0LjM5NCAyMjkuNjM2IDE1OS4xNjMgMjMxLjAwNCAxNTQuNzYzIDIzMi45NkMxNTAuMzYzIDIzNC45MTYgMTQ2Ljk0MSAyMzcuNjA0IDE0NC40OTYgMjQxLjAyN0MxNDIuMDUyIDI0NC40NDkgMTQwLjgzIDI0OC44IDE0MC44MyAyNTQuMDhDMTQwLjgzIDI1OC41NzggMTQxLjYxMiAyNjIuMjQ0IDE0My4xNzYgMjY1LjA4QzE0NC43NDEgMjY3LjgxOCAxNDYuNzQ1IDI2OS45NjkgMTQ5LjE5IDI3MS41MzNDMTUxLjczMiAyNzMuMDk4IDE1NC40MjEgMjc0LjE3MyAxNTcuMjU2IDI3NC43NlpNMTc3Ljc5IDI2MS43MDdDMTc1LjI0NyAyNjIuNTg3IDE3Mi40NjEgMjYzLjAyNyAxNjkuNDMgMjYzLjAyN0MxNjYuNzkgMjYzLjAyNyAxNjQuNDkyIDI2Mi42MzYgMTYyLjUzNiAyNjEuODUzQzE2MC41ODEgMjYxLjA3MSAxNTkuMTE0IDI1OS45NDcgMTU4LjEzNiAyNTguNDhDMTU3LjE1OCAyNTYuOTE2IDE1Ni42NyAyNTUuMDA5IDE1Ni42NyAyNTIuNzZDMTU2LjY3IDI0OS4wNDQgMTU4LjA4NyAyNDYuMTYgMTYwLjkyMyAyNDQuMTA3QzE2My43NTggMjQxLjk1NiAxNjcuNzE4IDI0MC40ODkgMTcyLjgwMyAyMzkuNzA3QzE3Ny44ODcgMjM4LjkyNCAxODMuODAzIDIzOC41MzMgMTkwLjU1IDIzOC41MzNWMjQzLjY2N0MxOTAuNTUgMjQ2LjUwMiAxOTAuMDEyIDI0OS4xNDIgMTg4LjkzNiAyNTEuNTg3QzE4Ny44NjEgMjUzLjkzMyAxODYuMzk0IDI1NS45ODcgMTg0LjUzNiAyNTcuNzQ3QzE4Mi42NzggMjU5LjQwOSAxODAuNDMgMjYwLjcyOSAxNzcuNzkgMjYxLjcwN1oiIGNsaXAtcnVsZT0iZXZlbm9kZCIgZmlsbC1ydWxlPSJldmVub2RkIi8+JiN4YTs8cGF0aCBmaWxsPSJ1cmwoI3BhaW50MTJfbGluZWFyXzEzNTZfODIxNDgpIiBkPSJNMjMyLjU0OCAzMDAuNTczQzIyOS4wMjggMzAwLjU3MyAyMjUuNzAzIDI5OS44NCAyMjIuNTc0IDI5OC4zNzNDMjE5LjU0MyAyOTYuOTA3IDIxNy4wOTkgMjk0LjgwNCAyMTUuMjQxIDI5Mi4wNjdDMjEzLjM4MyAyODkuMzI5IDIxMi40NTQgMjg2LjAwNCAyMTIuNDU0IDI4Mi4wOTNDMjEyLjQ1NCAyNzcuNzkxIDIxMy42MjggMjc0LjMyIDIxNS45NzQgMjcxLjY4QzIxOC40MTkgMjY4Ljk0MiAyMjEuMjU0IDI2Ni44ODkgMjI0LjQ4MSAyNjUuNTJDMjIyLjEzNCAyNjQuNDQ0IDIyMC4yMjggMjYyLjg4IDIxOC43NjEgMjYwLjgyN0MyMTcuMzkyIDI1OC43NzMgMjE2LjcwOCAyNTYuNDI3IDIxNi43MDggMjUzLjc4N0MyMTYuNzA4IDI1MC4xNjkgMjE4LjAyOCAyNDcuMjM2IDIyMC42NjggMjQ0Ljk4N0MyMjMuMzA4IDI0Mi43MzggMjI2LjM4OCAyNDEuMjcxIDIyOS45MDggMjQwLjU4N0MyMjYuNDg1IDIzOC4zMzggMjIzLjc5NiAyMzUuNTAyIDIyMS44NDEgMjMyLjA4QzIxOS45ODMgMjI4LjY1OCAyMTkuMDU0IDIyNC43OTYgMjE5LjA1NCAyMjAuNDkzQzIxOS4wNTQgMjE1LjMxMSAyMjAuMjc2IDIxMC44NjIgMjIyLjcyMSAyMDcuMTQ3QzIyNS4xNjUgMjAzLjMzMyAyMjguNzgzIDIwMC4zNTEgMjMzLjU3NCAxOTguMkMyMzguNDYzIDE5Ni4wNDkgMjQ0LjM3OSAxOTQuOTczIDI1MS4zMjEgMTk0Ljk3M0gyOTMuMzMzTDI5MCAyMDQuNDI3SDI3Ny45MTVDMjc5LjYwNyAyMDYuMzE3IDI4MC45MTEgMjA4LjQ0NiAyODEuODI4IDIxMC44MTNDMjgzLjA5OSAyMTMuNzQ3IDI4My43MzQgMjE2Ljk3MyAyODMuNzM0IDIyMC40OTNDMjgzLjczNCAyMjUuNTc4IDI4Mi41NjEgMjMwLjAyNyAyODAuMjE0IDIzMy44NEMyNzcuODY4IDIzNy42NTMgMjc0LjI5OSAyNDAuNjM2IDI2OS41MDggMjQyLjc4N0MyNjQuODE0IDI0NC45MzggMjU4Ljk5NiAyNDYuMDEzIDI1Mi4wNTQgMjQ2LjAxM0gyNDAuMDI4QzIzNy42ODEgMjQ2LjAxMyAyMzUuNzc0IDI0Ni41MDIgMjM0LjMwOCAyNDcuNDhDMjMyLjkzOSAyNDguNDU4IDIzMi4yNTQgMjQ5LjkyNCAyMzIuMjU0IDI1MS44OEMyMzIuMjU0IDI1My41NDIgMjMyLjkzOSAyNTQuOTExIDIzNC4zMDggMjU1Ljk4N0MyMzUuNjc2IDI1Ny4wNjIgMjM3LjQ4NSAyNTcuNiAyMzkuNzM0IDI1Ny42SDI3Mi4yOTRDMjc3Ljk2NSAyNTcuNiAyODIuNjU5IDI1OS41MDcgMjg2LjM3NCAyNjMuMzJDMjkwLjA5IDI2Ny4wMzYgMjkxLjk0OCAyNzEuODI3IDI5MS45NDggMjc3LjY5M0MyOTEuOTQ4IDI4MS45OTYgMjkwLjgyMyAyODUuODU4IDI4OC41NzQgMjg5LjI4QzI4Ni40MjMgMjkyLjggMjgzLjM0MyAyOTUuNTM4IDI3OS4zMzQgMjk3LjQ5M0MyNzUuNDIzIDI5OS41NDcgMjcwLjg3NiAzMDAuNTczIDI2NS42OTQgMzAwLjU3M0gyMzIuNTQ4Wk0yMzAuNDk0IDI4Ni42NEMyMzIuMzUyIDI4OC40IDIzNC42OTkgMjg5LjI4IDIzNy41MzQgMjg5LjI4SDI2NS41NDhDMjY3LjYwMSAyODkuMjggMjY5LjQ1OSAyODguODg5IDI3MS4xMjEgMjg4LjEwN0MyNzIuNzgzIDI4Ny4zMjQgMjc0LjEwMyAyODYuMiAyNzUuMDgxIDI4NC43MzNDMjc2LjA1OSAyODMuMzY0IDI3Ni41NDggMjgxLjggMjc2LjU0OCAyODAuMDRDMjc2LjU0OCAyNzcuMTA3IDI3NS42MTkgMjc0LjgwOSAyNzMuNzYxIDI3My4xNDdDMjcyLjAwMSAyNzEuNDg0IDI2OS44MDEgMjcwLjY1MyAyNjcuMTYxIDI3MC42NTNIMjM3LjUzNEMyMzQuNzk2IDI3MC42NTMgMjMyLjQ5OSAyNzEuNTgyIDIzMC42NDEgMjczLjQ0QzIyOC43ODMgMjc1LjIgMjI3Ljg1NCAyNzcuNCAyMjcuODU0IDI4MC4wNEMyMjcuODU0IDI4Mi43NzggMjI4LjczNCAyODQuOTc4IDIzMC40OTQgMjg2LjY0Wk0yNTEuNDY4IDIzNS4wMTNDMjU3LjIzNiAyMzUuMDEzIDI2MS41MzkgMjMzLjc0MiAyNjQuMzc0IDIzMS4yQzI2Ny4yMSAyMjguNTYgMjY4LjYyOCAyMjQuOTkxIDI2OC42MjggMjIwLjQ5M0MyNjguNjI4IDIxNS44OTggMjY3LjIxIDIxMi4zNzggMjY0LjM3NCAyMDkuOTMzQzI2MS41MzkgMjA3LjM5MSAyNTcuMjM2IDIwNi4xMiAyNTEuNDY4IDIwNi4xMkMyNDUuNjk5IDIwNi4xMiAyNDEuMzk2IDIwNy4zOTEgMjM4LjU2MSAyMDkuOTMzQzIzNS43MjUgMjEyLjM3OCAyMzQuMzA4IDIxNS44OTggMjM0LjMwOCAyMjAuNDkzQzIzNC4zMDggMjIzLjQyNyAyMzQuODk0IDIyNi4wMTggMjM2LjA2OCAyMjguMjY3QzIzNy4zMzkgMjMwLjQxOCAyMzkuMjQ1IDIzMi4wOCAyNDEuNzg4IDIzMy4yNTNDMjQ0LjQyOCAyMzQuNDI3IDI0Ny42NTQgMjM1LjAxMyAyNTEuNDY4IDIzNS4wMTNaIiBjbGlwLXJ1bGU9ImV2ZW5vZGQiIGZpbGwtcnVsZT0iZXZlbm9kZCIvPiYjeGE7PHBhdGggZmlsbD0idXJsKCNwYWludDEzX2xpbmVhcl8xMzU2XzgyMTQ4KSIgZD0iTTMxMS41NzMgMjcxLjM4N0MzMTcuMTQ3IDI3NC4yMjIgMzIzLjk0MiAyNzUuNjQgMzMxLjk2IDI3NS42NEMzNDAuMTczIDI3NS42NCAzNDcuMDE4IDI3NC4yMjIgMzUyLjQ5MyAyNzEuMzg3QzM1Ny45NjkgMjY4LjQ1MyAzNjIuMDc1IDI2NC4wMDQgMzY0LjgxMyAyNTguMDRDMzY3LjY0OSAyNTIuMDc2IDM2OS4wNjcgMjQ0LjQ5OCAzNjkuMDY3IDIzNS4zMDdDMzY5LjA2NyAyMjYuMDE4IDM2Ny42NDkgMjE4LjQ0IDM2NC44MTMgMjEyLjU3M0MzNjIuMDc1IDIwNi42MDkgMzU3Ljk2OSAyMDIuMjA5IDM1Mi40OTMgMTk5LjM3M0MzNDcuMDE4IDE5Ni40NCAzNDAuMTczIDE5NC45NzMgMzMxLjk2IDE5NC45NzNDMzIzLjk0MiAxOTQuOTczIDMxNy4xNDcgMTk2LjQ0IDMxMS41NzMgMTk5LjM3M0MzMDYuMDk4IDIwMi4yMDkgMzAxLjk0MiAyMDYuNjA5IDI5OS4xMDcgMjEyLjU3M0MyOTYuMzY5IDIxOC40NCAyOTUgMjI2LjAxOCAyOTUgMjM1LjMwN0MyOTUgMjQ0LjQ5OCAyOTYuMzY5IDI1Mi4wNzYgMjk5LjEwNyAyNTguMDRDMzAxLjk0MiAyNjQuMDA0IDMwNi4wOTggMjY4LjQ1MyAzMTEuNTczIDI3MS4zODdaTTM0My45ODcgMjYwLjI0QzM0MC44NTggMjYyLjA5OCAzMzYuODQ5IDI2My4wMjcgMzMxLjk2IDI2My4wMjdDMzI3LjE2OSAyNjMuMDI3IDMyMy4yMDkgMjYyLjA5OCAzMjAuMDggMjYwLjI0QzMxNi45NTEgMjU4LjI4NCAzMTQuNjA0IDI1NS4zNTEgMzEzLjA0IDI1MS40NEMzMTEuNTczIDI0Ny41MjkgMzEwLjg0IDI0Mi41OTEgMzEwLjg0IDIzNi42MjdWMjMzLjk4N0MzMTAuODQgMjI4LjAyMiAzMTEuNTczIDIyMy4wODQgMzEzLjA0IDIxOS4xNzNDMzE0LjYwNCAyMTUuMjYyIDMxNi45NTEgMjEyLjM3OCAzMjAuMDggMjEwLjUyQzMyMy4yMDkgMjA4LjU2NCAzMjcuMTY5IDIwNy41ODcgMzMxLjk2IDIwNy41ODdDMzM2Ljg0OSAyMDcuNTg3IDM0MC44NTggMjA4LjU2NCAzNDMuOTg3IDIxMC41MkMzNDcuMTE1IDIxMi4zNzggMzQ5LjQxMyAyMTUuMjYyIDM1MC44OCAyMTkuMTczQzM1Mi40NDQgMjIzLjA4NCAzNTMuMjI3IDIyOC4wMjIgMzUzLjIyNyAyMzMuOTg3VjIzNi42MjdDMzUzLjIyNyAyNDIuNTkxIDM1Mi40NDQgMjQ3LjUyOSAzNTAuODggMjUxLjQ0QzM0OS40MTMgMjU1LjM1MSAzNDcuMTE1IDI1OC4yODQgMzQzLjk4NyAyNjAuMjRaIiBjbGlwLXJ1bGU9ImV2ZW5vZGQiIGZpbGwtcnVsZT0iZXZlbm9kZCIvPiYjeGE7PHBhdGggZmlsbD0idXJsKCNwYWludDE0X2xpbmVhcl8xMzU2XzgyMTQ4KSIgZD0iTTM5Ny44OTMgMjE4QzM5Ni4xMzMgMjIxLjAzMSAzOTUuMjUzIDIyNC42IDM5NS4yNTMgMjI4LjcwN1YyNzMuODhIMzgwVjE5Ni43MzNIMzkyLjYxM0wzOTMuOTMzIDIwNy43MzNIMzk0Ljk2QzM5Ni44MTggMjA0Ljg5OCAzOTkuMDE4IDIwMi41NTEgNDAxLjU2IDIwMC42OTNDNDA0LjEwMiAxOTguODM2IDQwNi44ODkgMTk3LjQxOCA0MDkuOTIgMTk2LjQ0QzQxMy4wNDkgMTk1LjQ2MiA0MTYuNDcxIDE5NC45NzMgNDIwLjE4NyAxOTQuOTczQzQyNS4wNzUgMTk0Ljk3MyA0MjkuMzc4IDE5NS44NTMgNDMzLjA5MyAxOTcuNjEzQzQzNi44MDkgMTk5LjI3NiA0MzkuNjkzIDIwMi4wMTMgNDQxLjc0NyAyMDUuODI3QzQ0My44OTggMjA5LjY0IDQ0NC45NzMgMjE0Ljc3MyA0NDQuOTczIDIyMS4yMjdWMjczLjg4SDQyOS43MlYyMjMuNTczQzQyOS43MiAyMjAuNjQgNDI5LjMyOSAyMTguMTk2IDQyOC41NDcgMjE2LjI0QzQyNy44NjIgMjE0LjI4NCA0MjYuODM2IDIxMi43MiA0MjUuNDY3IDIxMS41NDdDNDI0LjA5OCAyMTAuMzczIDQyMi40ODQgMjA5LjU0MiA0MjAuNjI3IDIwOS4wNTNDNDE4Ljc2OSAyMDguNTY0IDQxNi43MTUgMjA4LjMyIDQxNC40NjcgMjA4LjMyQzQxMC45NDcgMjA4LjMyIDQwNy43MiAyMDkuMiA0MDQuNzg3IDIxMC45NkM0MDEuOTUxIDIxMi42MjIgMzk5LjY1MyAyMTQuOTY5IDM5Ny44OTMgMjE4WiIvPiYjeGE7PHBhdGggZmlsbD0idXJsKCNwYWludDE1X2xpbmVhcl8xMzU2XzgyMTQ4KSIgZD0iTTYwMCAxOTYuNTkyTDU2NC44IDMwMC45NTJINTQ5LjI1QzU0OS4yNSAzMDAuOTUyIDU1Ni43MzMgMjc2LjQ3IDU1Ny45MDcgMjczLjI0NEw1MjYuOTYgMTk2LjU5Mkg1NDIuOTQ3TDU1Ny45MDcgMjMxLjY4NUM1NTguNTkxIDIzMy40NDUgNTU5LjMyNCAyMzUuNjQ1IDU2MC4xMDcgMjM4LjI4NUM1NjAuOTg3IDI0MC45MjUgNTYxLjgxOCAyNDMuNjE0IDU2Mi42IDI0Ni4zNTJDNTYzLjQ4IDI0OS4wOSA1NjQuMjEzIDI1MS41MzQgNTY0LjggMjUzLjY4NUg1NjUuNTMzQzU2Ni4wMjIgMjUyLjIxOSA1NjYuNTExIDI1MC41NTcgNTY3IDI0OC42OTlDNTY3LjU4NyAyNDYuNzQzIDU2OC4xNzMgMjQ0LjczOSA1NjguNzYgMjQyLjY4NUM1NjkuMzQ3IDI0MC42MzIgNTY5LjkzMyAyMzguNjc3IDU3MC41MiAyMzYuODE5QzU3MS4xMDcgMjM0Ljg2MyA1NzEuNTk2IDIzMy4yMDEgNTcxLjk4NyAyMzEuODMyTDU4NC40NTMgMTk2LjU5Mkg2MDBaIi8+JiN4YTs8cGF0aCBmaWxsPSJ1cmwoI3BhaW50MTZfbGluZWFyXzEzNTZfODIxNDgpIiBkPSJNNTAzLjcxNSAxNjcuODRWMjczLjg4SDUxOC45NjlWMTY3Ljg0SDUwMy43MTVaIi8+JiN4YTs8ZGVmcz4mI3hhOzxsaW5lYXJHcmFkaWVudCBncmFkaWVudFVuaXRzPSJ1c2VyU3BhY2VPblVzZSIgeTI9IjE0Ni42NjciIHgyPSIzMDAuMDAxIiB5MT0iMCIgeDE9IjMwMC4wMDEiIGlkPSJwYWludDBfbGluZWFyXzEzNTZfODIxNDgiPiYjeGE7PHN0b3Agc3RvcC1jb2xvcj0iIzVBM0VFMCIvPiYjeGE7PHN0b3Agc3RvcC1jb2xvcj0iIzNFNzRFMCIgb2Zmc2V0PSIxIi8+JiN4YTs8L2xpbmVhckdyYWRpZW50PiYjeGE7PGxpbmVhckdyYWRpZW50IGdyYWRpZW50VW5pdHM9InVzZXJTcGFjZU9uVXNlIiB5Mj0iMTQ2LjY2NyIgeDI9IjMwMC4wMDEiIHkxPSIwIiB4MT0iMzAwLjAwMSIgaWQ9InBhaW50MV9saW5lYXJfMTM1Nl84MjE0OCI+JiN4YTs8c3RvcCBzdG9wLWNvbG9yPSIjNUEzRUUwIi8+JiN4YTs8c3RvcCBzdG9wLWNvbG9yPSIjM0U3NEUwIiBvZmZzZXQ9IjEiLz4mI3hhOzwvbGluZWFyR3JhZGllbnQ+JiN4YTs8bGluZWFyR3JhZGllbnQgZ3JhZGllbnRVbml0cz0idXNlclNwYWNlT25Vc2UiIHkyPSIxNDYuNjY3IiB4Mj0iMzAwLjAwMSIgeTE9IjAiIHgxPSIzMDAuMDAxIiBpZD0icGFpbnQyX2xpbmVhcl8xMzU2XzgyMTQ4Ij4mI3hhOzxzdG9wIHN0b3AtY29sb3I9IiM1QTNFRTAiLz4mI3hhOzxzdG9wIHN0b3AtY29sb3I9IiMzRTc0RTAiIG9mZnNldD0iMSIvPiYjeGE7PC9saW5lYXJHcmFkaWVudD4mI3hhOzxsaW5lYXJHcmFkaWVudCBncmFkaWVudFVuaXRzPSJ1c2VyU3BhY2VPblVzZSIgeTI9IjE0Ni42NjciIHgyPSIzMDAuMDAxIiB5MT0iMCIgeDE9IjMwMC4wMDEiIGlkPSJwYWludDNfbGluZWFyXzEzNTZfODIxNDgiPiYjeGE7PHN0b3Agc3RvcC1jb2xvcj0iIzVBM0VFMCIvPiYjeGE7PHN0b3Agc3RvcC1jb2xvcj0iIzNFNzRFMCIgb2Zmc2V0PSIxIi8+JiN4YTs8L2xpbmVhckdyYWRpZW50PiYjeGE7PGxpbmVhckdyYWRpZW50IGdyYWRpZW50VW5pdHM9InVzZXJTcGFjZU9uVXNlIiB5Mj0iMTQ2LjY2NyIgeDI9IjMwMC4wMDEiIHkxPSIwIiB4MT0iMzAwLjAwMSIgaWQ9InBhaW50NF9saW5lYXJfMTM1Nl84MjE0OCI+JiN4YTs8c3RvcCBzdG9wLWNvbG9yPSIjNUEzRUUwIi8+JiN4YTs8c3RvcCBzdG9wLWNvbG9yPSIjM0U3NEUwIiBvZmZzZXQ9IjEiLz4mI3hhOzwvbGluZWFyR3JhZGllbnQ+JiN4YTs8bGluZWFyR3JhZGllbnQgZ3JhZGllbnRVbml0cz0idXNlclNwYWNlT25Vc2UiIHkyPSIxNDYuNjY3IiB4Mj0iMzAwLjAwMSIgeTE9IjAiIHgxPSIzMDAuMDAxIiBpZD0icGFpbnQ1X2xpbmVhcl8xMzU2XzgyMTQ4Ij4mI3hhOzxzdG9wIHN0b3AtY29sb3I9IiM1QTNFRTAiLz4mI3hhOzxzdG9wIHN0b3AtY29sb3I9IiMzRTc0RTAiIG9mZnNldD0iMSIvPiYjeGE7PC9saW5lYXJHcmFkaWVudD4mI3hhOzxsaW5lYXJHcmFkaWVudCBncmFkaWVudFVuaXRzPSJ1c2VyU3BhY2VPblVzZSIgeTI9IjE0Ni42NjciIHgyPSIzMDAuMDAxIiB5MT0iMCIgeDE9IjMwMC4wMDEiIGlkPSJwYWludDZfbGluZWFyXzEzNTZfODIxNDgiPiYjeGE7PHN0b3Agc3RvcC1jb2xvcj0iIzVBM0VFMCIvPiYjeGE7PHN0b3Agc3RvcC1jb2xvcj0iIzNFNzRFMCIgb2Zmc2V0PSIxIi8+JiN4YTs8L2xpbmVhckdyYWRpZW50PiYjeGE7PGxpbmVhckdyYWRpZW50IGdyYWRpZW50VW5pdHM9InVzZXJTcGFjZU9uVXNlIiB5Mj0iMTQ2LjY2NyIgeDI9IjMwMC4wMDEiIHkxPSIwIiB4MT0iMzAwLjAwMSIgaWQ9InBhaW50N19saW5lYXJfMTM1Nl84MjE0OCI+JiN4YTs8c3RvcCBzdG9wLWNvbG9yPSIjNUEzRUUwIi8+JiN4YTs8c3RvcCBzdG9wLWNvbG9yPSIjM0U3NEUwIiBvZmZzZXQ9IjEiLz4mI3hhOzwvbGluZWFyR3JhZGllbnQ+JiN4YTs8bGluZWFyR3JhZGllbnQgZ3JhZGllbnRVbml0cz0idXNlclNwYWNlT25Vc2UiIHkyPSIzMDAuOTUyIiB4Mj0iMzAwIiB5MT0iMTY2LjY2NyIgeDE9IjMwMCIgaWQ9InBhaW50OF9saW5lYXJfMTM1Nl84MjE0OCI+JiN4YTs8c3RvcCBzdG9wLWNvbG9yPSIjNUEzRUUwIi8+JiN4YTs8c3RvcCBzdG9wLWNvbG9yPSIjM0U3NEUwIiBvZmZzZXQ9IjEiLz4mI3hhOzwvbGluZWFyR3JhZGllbnQ+JiN4YTs8bGluZWFyR3JhZGllbnQgZ3JhZGllbnRVbml0cz0idXNlclNwYWNlT25Vc2UiIHkyPSIzMDAuOTUyIiB4Mj0iMzAwIiB5MT0iMTY2LjY2NyIgeDE9IjMwMCIgaWQ9InBhaW50OV9saW5lYXJfMTM1Nl84MjE0OCI+JiN4YTs8c3RvcCBzdG9wLWNvbG9yPSIjNUEzRUUwIi8+JiN4YTs8c3RvcCBzdG9wLWNvbG9yPSIjM0U3NEUwIiBvZmZzZXQ9IjEiLz4mI3hhOzwvbGluZWFyR3JhZGllbnQ+JiN4YTs8bGluZWFyR3JhZGllbnQgZ3JhZGllbnRVbml0cz0idXNlclNwYWNlT25Vc2UiIHkyPSIzMDAuOTUyIiB4Mj0iMzAwIiB5MT0iMTY2LjY2NyIgeDE9IjMwMCIgaWQ9InBhaW50MTBfbGluZWFyXzEzNTZfODIxNDgiPiYjeGE7PHN0b3Agc3RvcC1jb2xvcj0iIzVBM0VFMCIvPiYjeGE7PHN0b3Agc3RvcC1jb2xvcj0iIzNFNzRFMCIgb2Zmc2V0PSIxIi8+JiN4YTs8L2xpbmVhckdyYWRpZW50PiYjeGE7PGxpbmVhckdyYWRpZW50IGdyYWRpZW50VW5pdHM9InVzZXJTcGFjZU9uVXNlIiB5Mj0iMzAwLjk1MiIgeDI9IjMwMCIgeTE9IjE2Ni42NjciIHgxPSIzMDAiIGlkPSJwYWludDExX2xpbmVhcl8xMzU2XzgyMTQ4Ij4mI3hhOzxzdG9wIHN0b3AtY29sb3I9IiM1QTNFRTAiLz4mI3hhOzxzdG9wIHN0b3AtY29sb3I9IiMzRTc0RTAiIG9mZnNldD0iMSIvPiYjeGE7PC9saW5lYXJHcmFkaWVudD4mI3hhOzxsaW5lYXJHcmFkaWVudCBncmFkaWVudFVuaXRzPSJ1c2VyU3BhY2VPblVzZSIgeTI9IjMwMC45NTIiIHgyPSIzMDAiIHkxPSIxNjYuNjY3IiB4MT0iMzAwIiBpZD0icGFpbnQxMl9saW5lYXJfMTM1Nl84MjE0OCI+JiN4YTs8c3RvcCBzdG9wLWNvbG9yPSIjNUEzRUUwIi8+JiN4YTs8c3RvcCBzdG9wLWNvbG9yPSIjM0U3NEUwIiBvZmZzZXQ9IjEiLz4mI3hhOzwvbGluZWFyR3JhZGllbnQ+JiN4YTs8bGluZWFyR3JhZGllbnQgZ3JhZGllbnRVbml0cz0idXNlclNwYWNlT25Vc2UiIHkyPSIzMDAuOTUyIiB4Mj0iMzAwIiB5MT0iMTY2LjY2NyIgeDE9IjMwMCIgaWQ9InBhaW50MTNfbGluZWFyXzEzNTZfODIxNDgiPiYjeGE7PHN0b3Agc3RvcC1jb2xvcj0iIzVBM0VFMCIvPiYjeGE7PHN0b3Agc3RvcC1jb2xvcj0iIzNFNzRFMCIgb2Zmc2V0PSIxIi8+JiN4YTs8L2xpbmVhckdyYWRpZW50PiYjeGE7PGxpbmVhckdyYWRpZW50IGdyYWRpZW50VW5pdHM9InVzZXJTcGFjZU9uVXNlIiB5Mj0iMzAwLjk1MiIgeDI9IjMwMCIgeTE9IjE2Ni42NjciIHgxPSIzMDAiIGlkPSJwYWludDE0X2xpbmVhcl8xMzU2XzgyMTQ4Ij4mI3hhOzxzdG9wIHN0b3AtY29sb3I9IiM1QTNFRTAiLz4mI3hhOzxzdG9wIHN0b3AtY29sb3I9IiMzRTc0RTAiIG9mZnNldD0iMSIvPiYjeGE7PC9saW5lYXJHcmFkaWVudD4mI3hhOzxsaW5lYXJHcmFkaWVudCBncmFkaWVudFVuaXRzPSJ1c2VyU3BhY2VPblVzZSIgeTI9IjMwMC45NTIiIHgyPSIzMDAiIHkxPSIxNjYuNjY3IiB4MT0iMzAwIiBpZD0icGFpbnQxNV9saW5lYXJfMTM1Nl84MjE0OCI+JiN4YTs8c3RvcCBzdG9wLWNvbG9yPSIjNUEzRUUwIi8+JiN4YTs8c3RvcCBzdG9wLWNvbG9yPSIjM0U3NEUwIiBvZmZzZXQ9IjEiLz4mI3hhOzwvbGluZWFyR3JhZGllbnQ+JiN4YTs8bGluZWFyR3JhZGllbnQgZ3JhZGllbnRVbml0cz0idXNlclNwYWNlT25Vc2UiIHkyPSIzMDAuOTUyIiB4Mj0iMzAwIiB5MT0iMTY2LjY2NyIgeDE9IjMwMCIgaWQ9InBhaW50MTZfbGluZWFyXzEzNTZfODIxNDgiPiYjeGE7PHN0b3Agc3RvcC1jb2xvcj0iIzVBM0VFMCIvPiYjeGE7PHN0b3Agc3RvcC1jb2xvcj0iIzNFNzRFMCIgb2Zmc2V0PSIxIi8+JiN4YTs8L2xpbmVhckdyYWRpZW50PiYjeGE7PC9kZWZzPiYjeGE7PC9zdmc+;fillColor=#FAE5C7;strokeColor=#0F8B8D;fontColor=#143642;" parent="liNbVXP8YebT4ni5DIOp-36" vertex="1">
                    <mxGeometry x="20" width="100" height="50.67" as="geometry"/>
                </mxCell>
                <mxCell id="liNbVXP8YebT4ni5DIOp-22" value="" style="endArrow=none;html=1;rounded=0;labelBackgroundColor=none;strokeColor=#A8201A;fontColor=default;" parent="liNbVXP8YebT4ni5DIOp-36" edge="1">
                    <mxGeometry width="50" height="50" relative="1" as="geometry">
                        <mxPoint x="64.75" y="170.66999999999996" as="sourcePoint"/>
                        <mxPoint x="64.75" y="120.66999999999996" as="targetPoint"/>
                    </mxGeometry>
                </mxCell>
                <mxCell id="liNbVXP8YebT4ni5DIOp-23" value="" style="endArrow=none;html=1;rounded=0;labelBackgroundColor=none;strokeColor=#A8201A;fontColor=default;" parent="liNbVXP8YebT4ni5DIOp-36" edge="1">
                    <mxGeometry width="50" height="50" relative="1" as="geometry">
                        <mxPoint x="74.25" y="170.66999999999996" as="sourcePoint"/>
                        <mxPoint x="74.25" y="120.66999999999996" as="targetPoint"/>
                    </mxGeometry>
                </mxCell>
                <mxCell id="liNbVXP8YebT4ni5DIOp-12" value="object" style="shape=cylinder3;whiteSpace=wrap;html=1;boundedLbl=1;backgroundOutline=1;size=15;labelBackgroundColor=none;fillColor=#FAE5C7;strokeColor=#0F8B8D;fontColor=#143642;" parent="liNbVXP8YebT4ni5DIOp-36" vertex="1">
                    <mxGeometry x="40" y="50.66999999999996" width="60" height="80" as="geometry"/>
                </mxCell>
                <mxCell id="liNbVXP8YebT4ni5DIOp-37" value="" style="group;labelBackgroundColor=none;fontColor=#143642;" parent="1" vertex="1" connectable="0">
                    <mxGeometry x="504" y="349.2" width="230" height="125.80000000000001" as="geometry"/>
                </mxCell>
                <mxCell id="liNbVXP8YebT4ni5DIOp-40" style="edgeStyle=orthogonalEdgeStyle;rounded=0;orthogonalLoop=1;jettySize=auto;html=1;labelBackgroundColor=none;strokeColor=#A8201A;fontColor=default;" parent="liNbVXP8YebT4ni5DIOp-37" edge="1">
                    <mxGeometry relative="1" as="geometry">
                        <mxPoint x="60" y="-14.199999999999989" as="targetPoint"/>
                        <mxPoint x="-64" y="95.80000000000001" as="sourcePoint"/>
                        <Array as="points">
                            <mxPoint x="-44" y="96"/>
                            <mxPoint x="-44" y="1"/>
                            <mxPoint x="60" y="1"/>
                        </Array>
                    </mxGeometry>
                </mxCell>
                <mxCell id="liNbVXP8YebT4ni5DIOp-4" value="room-service" style="rounded=1;whiteSpace=wrap;html=1;labelBackgroundColor=none;fillColor=#FAE5C7;strokeColor=#0F8B8D;fontColor=#143642;" parent="liNbVXP8YebT4ni5DIOp-37" vertex="1">
                    <mxGeometry y="65.80000000000001" width="120" height="60" as="geometry"/>
                </mxCell>
                <mxCell id="liNbVXP8YebT4ni5DIOp-26" value="" style="endArrow=none;html=1;rounded=0;labelBackgroundColor=none;strokeColor=#A8201A;fontColor=default;" parent="liNbVXP8YebT4ni5DIOp-37" edge="1">
                    <mxGeometry width="50" height="50" relative="1" as="geometry">
                        <mxPoint x="120" y="90.30000000000001" as="sourcePoint"/>
                        <mxPoint x="187" y="90.30000000000001" as="targetPoint"/>
                    </mxGeometry>
                </mxCell>
                <mxCell id="liNbVXP8YebT4ni5DIOp-27" value="" style="endArrow=none;html=1;rounded=0;labelBackgroundColor=none;strokeColor=#A8201A;fontColor=default;" parent="liNbVXP8YebT4ni5DIOp-37" edge="1">
                    <mxGeometry width="50" height="50" relative="1" as="geometry">
                        <mxPoint x="121" y="100.30000000000001" as="sourcePoint"/>
                        <mxPoint x="188" y="100.30000000000001" as="targetPoint"/>
                    </mxGeometry>
                </mxCell>
                <mxCell id="liNbVXP8YebT4ni5DIOp-24" value="room" style="shape=cylinder3;whiteSpace=wrap;html=1;boundedLbl=1;backgroundOutline=1;size=15;labelBackgroundColor=none;fillColor=#FAE5C7;strokeColor=#0F8B8D;fontColor=#143642;" parent="liNbVXP8YebT4ni5DIOp-37" vertex="1">
                    <mxGeometry x="170" y="45.80000000000001" width="60" height="80" as="geometry"/>
                </mxCell>
                <mxCell id="liNbVXP8YebT4ni5DIOp-31" value="" style="shape=image;verticalLabelPosition=bottom;labelBackgroundColor=none;verticalAlign=top;aspect=fixed;imageAspect=0;image=https://logos-download.com/wp-content/uploads/2018/09/SQLite_Logo.png;fillColor=#FAE5C7;strokeColor=#0F8B8D;fontColor=#143642;" parent="liNbVXP8YebT4ni5DIOp-37" vertex="1">
                    <mxGeometry x="170" width="60" height="25.8" as="geometry"/>
                </mxCell>
                <mxCell id="liNbVXP8YebT4ni5DIOp-42" style="edgeStyle=orthogonalEdgeStyle;rounded=0;orthogonalLoop=1;jettySize=auto;html=1;exitX=1;exitY=0.5;exitDx=0;exitDy=0;entryX=0.433;entryY=1.02;entryDx=0;entryDy=0;entryPerimeter=0;labelBackgroundColor=none;strokeColor=#A8201A;fontColor=default;" parent="1" source="liNbVXP8YebT4ni5DIOp-1" target="liNbVXP8YebT4ni5DIOp-2" edge="1">
                    <mxGeometry relative="1" as="geometry"/>
                </mxCell>
            </root>
        </mxGraphModel>
    </diagram>
</mxfile>